#!OML:ASF E:\basketball\basketball\Project 1\Capture day 1\Session 1\Subject.ASF
:FULLY-SPECIFIED
:DEGREES
117
root -22.2122 14.572 10.488 12.6226 -4.30336 6.06754
lowerback 14.5018 11.5927 -14.1419
upperback 11.7116 13.6844 -6.49338
thorax 3.44228 6.2741 -1.10408
lowerneck 0.548618 -11.612 -16.5522
upperneck -22.6986 -12.2103 31.7633
head -2.94499 -7.17342 13.5429
rclavicle 3.55825e-014 -7.606e-014
rhumerus -36.5913 4.67191 -90.9244
rradius 66.4638
rwrist -38.8461
rhand -18.1202 22.7874
rfingers 7.12502
rthumb 8.1543 -7.03525
lclavicle 3.55825e-014 -7.606e-014
lhumerus -29.9248 22.3653 72.079
lradius 110.447
lwrist 62.0296
lhand 20.8992 47.2343
lfingers 7.12502
lthumb 45.3718 70.5859
rfemur -19.1732 -11.0145 12.6039
rtibia 91.0416
rfoot -8.67576 3.38
rtoes -20.6113
lfemur -29.645 6.22558 -19.481
ltibia 55.1527
lfoot -29.8204 1.6867
ltoes -31.5769
118
root -22.266 14.6306 10.744 12.8173 -3.36521 6.10779
lowerback 15.4629 10.8518 -14.3018
upperback 11.523 12.468 -6.11668
thorax 2.6905 5.67766 -0.601264
lowerneck 0.212138 -11.3233 -17.0719
upperneck -22.3021 -11.8838 31.6492
head -2.82538 -6.92997 13.5783
rclavicle -7.17613e-014 2.34069e-014
rhumerus -36.1436 4.48644 -90.4752
rradius 66.7597
rwrist -37.0563
rhand -18.1506 22.76
rfingers 7.12502
rthumb 8.12497 -7.06383
lclavicle -7.17613e-014 2.34069e-014
lhumerus -25.9235 21.377 73.2915
lradius 112.245
lwrist 58.8797
lhand 19.4693 45.1556
lfingers 7.12502
lthumb 44.0404 69.0234
rfemur -23.0765 -11.8738 14.8095
rtibia 92.0637
rfoot -9.71343 2.21535
rtoes -20.3518
lfemur -27.9464 6.35506 -19.1488
ltibia 53.2977
lfoot -29.1299 1.08948
ltoes -31.7614
119
root -22.3217 14.6894 10.9994 13.1349 -2.25961 6.29196
lowerback 16.5263 10.1517 -14.2392
upperback 11.1272 11.2988 -5.95003
thorax 1.76075 5.14584 -0.435058
lowerneck 0.369753 -11.1089 -16.9838
upperneck -21.9907 -11.661 31.5311
head -2.84487 -6.82103 13.5367
rclavicle 9.94917e-014 -4.90004e-014
rhumerus -35.9434 3.73136 -90.3778
rradius 67.0985
rwrist -35.5442
rhand -18.1922 22.7086
rfingers 7.12502
rthumb 8.08481 -7.11671
lclavicle 9.94917e-014 -4.90004e-014
lhumerus -22.0656 19.7861 73.7935
lradius 114.001
lwrist 55.6079
lhand 19.2415 45.6538
lfingers 7.12502
lthumb 43.8278 69.6006
rfemur -27.1051 -12.5352 16.894
rtibia 92.6321
rfoot -10.558 1.05449
rtoes -18.198
lfemur -26.5643 6.46569 -18.9665
ltibia 51.6937
lfoot -28.2798 1.06833
ltoes -33.8507
120
root -22.3811 14.7547 11.2604 12.9226 -1.16454 6.56519
lowerback 18.087 9.5455 -14.2884
upperback 10.8461 10.1509 -5.70324
thorax 0.696183 4.62002 -0.163009
lowerneck 0.281996 -10.8632 -16.9399
upperneck -21.4353 -11.407 31.407
head -2.7557 -6.66725 13.4637
rclavicle -1.63003e-014 -6.95746e-016
rhumerus -35.7754 3.10322 -90.2506
rradius 67.5554
rwrist -34.3345
rhand -18.0802 22.5073
rfingers 7.12502
rthumb 8.19294 -7.31388
lclavicle -1.63003e-014 -6.95746e-016
lhumerus -18.5617 16.6468 74.7193
lradius 115.218
lwrist 50.1177
lhand 18.2375 44.5026
lfingers 7.12502
lthumb 42.8898 68.7874
rfemur -30.3507 -12.9005 18.5903
rtibia 92.6171
rfoot -11.3672 0.373003
rtoes -14.6731
lfemur -24.5762 6.50164 -18.7607
ltibia 50.1719
lfoot -27.4238 1.35983
ltoes -37.5765
121
root -22.4395 14.8167 11.5238 12.8118 -0.00297376 6.75143
lowerback 19.469 8.8275 -14.3255
upperback 10.5239 8.90722 -5.42397
thorax -0.29682 4.04667 0.233
lowerneck 0.0458293 -10.53 -16.9762
upperneck -20.6554 -11.0605 31.2197
head -2.60087 -6.43882 13.3648
rclavicle 5.00937e-014 1.47101e-014
rhumerus -35.6368 2.83379 -90.2237
rradius 68.0129
rwrist -33.2446
rhand -18.1144 22.446
rfingers 7.12502
rthumb 8.15996 -7.37643
lclavicle 5.00937e-014 1.47101e-014
lhumerus -15.5747 14.4642 74.9379
lradius 117.038
lwrist 46.0043
lhand 17.19 45.5841
lfingers 7.12502
lthumb 41.9089 70.2046
rfemur -33.5158 -13.1451 20.3023
rtibia 92.0922
rfoot -12.1204 -1.11766
rtoes -14.9711
lfemur -22.7739 6.31638 -18.3741
ltibia 48.6944
lfoot -26.3814 0.777648
ltoes -38.6429
122
root -22.4955 14.8729 11.7922 12.6321 1.25497 7.04963
lowerback 20.9182 8.00185 -14.3883
upperback 10.2115 7.52101 -5.18688
thorax -1.2667 3.40785 0.677262
lowerneck -0.283749 -10.1477 -17.0217
upperneck -19.792 -10.6514 30.998
head -2.42493 -6.16686 13.2514
rclavicle 4.35338e-014 -7.91163e-014
rhumerus -35.3933 1.99191 -90.1485
rradius 68.1342
rwrist -30.3886
rhand -18.1537 22.4014
rfingers 7.12502
rthumb 8.12197 -7.42254
lclavicle 4.35338e-014 -7.91163e-014
lhumerus -13.2229 12.3523 74.7337
lradius 118.75
lwrist 41.6429
lhand 13.2737 43.7757
lfingers 7.12502
lthumb 38.2243 69.5135
rfemur -36.5254 -13.2675 21.6979
rtibia 91.1691
rfoot -12.9251 -3.28069
rtoes -15.7607
lfemur -20.8995 5.90134 -17.9576
ltibia 47.2562
lfoot -25.0082 -1.30526
ltoes -35.0418
